#!OML:ASF I:\Actors\actors\Patient Classification 2\Patient 1\Session 1\actor1.ASF
:FULLY-SPECIFIED
:DEGREES
421
root -0.152949 18.447 4.33746 14.6888 6.54756 -1.72252
lowerback 31.8589 0.359082 1.44005
upperback 2.68034 0.943426 -0.254663
thorax -13.562 0.342648 -1.4341
lowerneck -20.5596 -7.5186 -6.97598
upperneck 3.83898 -9.16322 8.98873
head 5.16503 -4.0124 2.98403
rclavicle -1.84373e-014 -7.25564e-015
rhumerus -42.7209 11.6307 -95.3644
rradius 116.915
rwrist 10.209
rhand -2.92157 -53.5615
rfingers 7.12502
rthumb 22.7892 -82.2354
lclavicle -1.84373e-014 -7.25564e-015
lhumerus -42.849 -18.3287 101.403
lradius 112.695
lwrist -12.9625
lhand 23.368 -12.8974
lfingers 7.12502
lthumb 47.6587 9.47308
rfemur -22.2388 -1.5628 13.3001
rtibia 22.4682
rfoot -21.9741 -9.97405
rtoes -13.7976
lfemur -35.9167 0.294519 -13.5464
ltibia 37.8485
lfoot -17.0364 3.43056
ltoes -57.3824
422
root -0.154159 18.4504 4.3683 14.6732 6.37929 -1.65434
lowerback 31.6642 0.335878 1.44201
upperback 2.63562 0.899916 -0.331097
thorax -13.5305 0.321295 -1.49914
lowerneck -20.5696 -7.65186 -7.00758
upperneck 4.48202 -9.36368 8.86092
head 5.37923 -4.10869 2.91571
rclavicle -8.54774e-015 -1.72446e-014
rhumerus -42.6112 11.8934 -95.6266
rradius 116.87
rwrist 10.2178
rhand -3.07151 -53.34
rfingers 7.12502
rthumb 22.6453 -82.0315
lclavicle -8.54774e-015 -1.72446e-014
lhumerus -42.8163 -18.0457 100.977
lradius 112.848
lwrist -13.2272
lhand 24.3169 -12.2655
lfingers 7.12502
lthumb 48.5333 9.6946
rfemur -22.1325 -1.54943 13.2318
rtibia 22.465
rfoot -21.9728 -9.84365
rtoes -13.8447
lfemur -35.7318 0.347073 -13.6329
ltibia 37.8102
lfoot -17.0641 3.61505
ltoes -57.5189
423
root -0.154365 18.4537 4.4033 14.6818 6.18045 -1.57541
lowerback 31.3964 0.328428 1.40312
upperback 2.57145 0.863049 -0.397045
thorax -13.4901 0.305254 -1.533
lowerneck -20.5691 -7.75112 -6.96571
upperneck 5.08779 -9.51293 8.55529
head 5.56235 -4.19257 2.78633
rclavicle -1.2921e-014 6.16232e-015
rhumerus -42.5079 12.1388 -95.7755
rradius 116.83
rwrist 10.0325
rhand -3.57149 -52.775
rfingers 7.12502
rthumb 22.1654 -81.5242
lclavicle -1.2921e-014 6.16232e-015
lhumerus -42.779 -17.7694 100.514
lradius 112.951
lwrist -13.6293
lhand 25.2242 -11.8246
lfingers 7.12502
lthumb 49.367 9.72424
rfemur -22.0507 -1.52058 13.1439
rtibia 22.4633
rfoot -21.9234 -9.77494
rtoes -14.267
lfemur -35.5602 0.39615 -13.7321
ltibia 37.7685
lfoot -17.1349 3.79419
ltoes -57.5903
424
root -0.156127 18.4567 4.44327 14.6085 5.80372 -1.48808
lowerback 31.1808 0.414439 1.21977
upperback 2.5251 0.898112 -0.453942
thorax -13.4511 0.329185 -1.50724
lowerneck -20.4788 -7.84725 -6.9773
upperneck 5.37646 -9.62628 8.24885
head 5.63041 -4.26853 2.67537
rclavicle -5.06901e-015 1.38155e-014
rhumerus -42.506 12.3041 -95.8464
rradius 116.869
rwrist 9.72882
rhand -4.02704 -52.4576
rfingers 7.12502
rthumb 21.728 -81.2581
lclavicle -5.06901e-015 1.38155e-014
lhumerus -42.7935 -17.5389 100.117
lradius 113.034
lwrist -13.969
lhand 25.9611 -11.5161
lfingers 7.12502
lthumb 50.0421 9.68451
rfemur -21.9034 -1.32469 13.0177
rtibia 22.4695
rfoot -21.8511 -9.737
rtoes -15.0616
lfemur -35.2239 0.604059 -13.8661
ltibia 37.7054
lfoot -17.3148 3.8621
ltoes -57.4972
425
root -0.15944 18.4587 4.48057 14.5988 5.54739 -1.38108
lowerback 30.8632 0.457726 1.07415
upperback 2.49058 0.88904 -0.529188
thorax -13.3542 0.331934 -1.50295
lowerneck -20.3001 -7.97223 -7.03957
upperneck 5.21165 -9.77311 8.20139
head 5.56096 -4.35246 2.65838
rclavicle -1.83876e-014 9.44227e-015
rhumerus -42.5313 12.3353 -95.8824
rradius 116.928
rwrist 9.40281
rhand -4.09728 -52.4746
rfingers 7.12502
rthumb 21.6605 -81.283
lclavicle -1.83876e-014 9.44227e-015
lhumerus -42.7468 -17.3943 99.7317
lradius 113.064
lwrist -14.2324
lhand 26.4794 -11.228
lfingers 7.12502
lthumb 50.5158 9.71962
rfemur -21.8058 -1.14501 12.8728
rtibia 22.46
rfoot -21.8804 -9.74546
rtoes -15.2496
lfemur -34.9708 0.612802 -13.9686
ltibia 37.6182
lfoot -17.4637 3.99358
ltoes -57.4191
426
root -0.16395 18.4646 4.52393 14.6311 5.29212 -1.35395
lowerback 30.4396 0.505732 0.98633
upperback 2.43911 0.904805 -0.611331
thorax -13.2274 0.342614 -1.54596
lowerneck -20.1403 -8.1204 -7.15035
upperneck 4.81749 -9.95307 8.40541
head 5.44221 -4.43835 2.72704
rclavicle 1.39149e-015 1.26228e-014
rhumerus -42.5094 12.2543 -95.8659
rradius 116.889
rwrist 8.99481
rhand -4.1226 -52.55
rfingers 7.12502
rthumb 21.6362 -81.3612
lclavicle 1.39149e-015 1.26228e-014
lhumerus -42.7633 -17.2579 99.3671
lradius 113.09
lwrist -14.5
lhand 26.8098 -11.0721
lfingers 7.12502
lthumb 50.8173 9.71068
rfemur -21.7087 -0.960905 12.8305
rtibia 22.3626
rfoot -21.8759 -9.78198
rtoes -14.9063
lfemur -34.7263 0.627699 -13.9723
ltibia 37.4766
lfoot -17.5534 4.20528
ltoes -57.4247
427
root -0.169529 18.4758 4.5725 14.7522 5.10574 -1.32591
lowerback 29.9446 0.503568 0.856977
upperback 2.312 0.846856 -0.669382
thorax -13.1568 0.322055 -1.51217
lowerneck -19.9914 -8.22311 -7.25441
upperneck 4.22657 -10.0622 8.63839
head 5.25991 -4.49087 2.81537
rclavicle 1.38155e-014 -2.27608e-014
rhumerus -42.4997 12.2114 -95.8531
rradius 116.703
rwrist 8.75687
rhand -3.9889 -52.7759
rfingers 7.12502
rthumb 21.7646 -81.5722
lclavicle 1.38155e-014 -2.27608e-014
lhumerus -42.9645 -16.9682 99.0548
lradius 113.126
lwrist -14.7569
lhand 26.7264 -11.0058
lfingers 7.12502
lthumb 50.7413 9.81887
rfemur -21.5963 -0.86805 12.821
rtibia 22.1083
rfoot -21.7722 -9.92117
rtoes -15.0341
lfemur -34.5492 0.662609 -13.9804
ltibia 37.2677
lfoot -17.581 4.41151
ltoes -57.4598
428
root -0.176106 18.4919 4.62641 14.8122 4.99674 -1.30524
lowerback 29.5753 0.42672 0.688638
upperback 2.1046 0.680974 -0.734792
thorax -13.2351 0.253138 -1.42675
lowerneck -19.5077 -8.31233 -7.27372
upperneck 3.08391 -10.1708 8.99376
head 4.85847 -4.55311 2.94697
rclavicle 1.37161e-014 -1.15295e-014
rhumerus -42.6246 12.1985 -95.976
rradius 116.426
rwrist 8.91012
rhand -3.71844 -53.0219
rfingers 7.12502
rthumb 22.0243 -81.7878
lclavicle 1.37161e-014 -1.15295e-014
lhumerus -43.3737 -16.5142 98.6959
lradius 113.104
lwrist -15.0032
lhand 26.2485 -11.0946
lfingers 7.12502
lthumb 50.3048 9.96662
rfemur -21.2452 -0.743632 12.8267
rtibia 21.6127
rfoot -21.6651 -10.1164
rtoes -15.4075
lfemur -34.242 0.696 -13.977
ltibia 36.9623
lfoot -17.5931 4.52891
ltoes -57.5232
429
root -0.182026 18.5122 4.68774 14.9947 4.83503 -1.31996
lowerback 28.9125 0.388497 0.554113
upperback 2.25943 0.576392 -0.764146
thorax -13.5329 0.197822 -1.43409
lowerneck -18.5847 -8.60881 -7.39841
upperneck 0.975069 -10.5101 9.58187
head 4.13316 -4.74955 3.17049
rclavicle -1.39149e-014 2.3059e-014
rhumerus -42.7941 12.081 -95.9759
rradius 116.16
rwrist 9.29001
rhand -3.09454 -53.4519
rfingers 7.12502
rthumb 22.6232 -82.1461
lclavicle -1.39149e-014 2.3059e-014
lhumerus -43.894 -16.0792 98.3969
lradius 113.005
lwrist -15.2282
lhand 25.6099 -11.4175
lfingers 7.12502
lthumb 49.7205 9.95081
rfemur -20.9021 -0.533338 12.8512
rtibia 20.8653
rfoot -21.4822 -10.3516
rtoes -15.4184
lfemur -33.9659 0.796603 -13.9435
ltibia 36.538
lfoot -17.5857 4.60075
ltoes -57.5354
430
root -0.188229 18.5396 4.75674 15.1972 4.63717 -1.34829
lowerback 28.2441 0.353293 0.334551
upperback 2.03669 0.451168 -0.825682
thorax -13.4454 0.152516 -1.32231
lowerneck -17.193 -8.99964 -7.44838
upperneck -2.40463 -10.9298 10.3421
head 2.97679 -5.02425 3.47481
rclavicle 5.36719e-015 1.07344e-014
rhumerus -42.9608 12.0214 -95.8773
rradius 115.92
rwrist 9.79969
rhand -2.47213 -53.7548
rfingers 7.12502
rthumb 23.2205 -82.3749
lclavicle 5.36719e-015 1.07344e-014
lhumerus -44.5435 -15.5136 98.0796
lradius 112.962
lwrist -15.4444
lhand 24.8785 -11.7524
lfingers 7.12502
lthumb 49.0496 9.95538
rfemur -20.4293 -0.311056 12.8844
rtibia 19.8282
rfoot -21.2132 -10.6285
rtoes -14.9373
lfemur -33.5915 0.961871 -13.8924
ltibia 35.976
lfoot -17.538 4.5837
ltoes -57.4627
431
root -0.193539 18.5743 4.83064 15.4492 4.46091 -1.35968
lowerback 27.6324 0.269827 0.101945
upperback 1.72823 0.257852 -0.91134
thorax -13.487 0.0752047 -1.20812
lowerneck -15.322 -9.78009 -7.76454
upperneck -7.04494 -11.7548 11.6813
head 1.48756 -5.53787 4.02521
rclavicle 1.68967e-014 5.1684e-015
rhumerus -43.2545 11.9361 -95.826
rradius 115.754
rwrist 10.3644
rhand -2.02889 -53.926
rfingers 7.12502
rthumb 23.6457 -82.4918
lclavicle 1.68967e-014 5.1684e-015
lhumerus -45.4959 -14.806 97.7377
lradius 113.112
lwrist -15.6199
lhand 24.2279 -11.9708
lfingers 7.12502
lthumb 48.4514 10.0287
rfemur -19.8313 -0.207301 12.906
rtibia 18.4781
rfoot -20.7454 -10.9258
rtoes -14.5782
lfemur -33.1753 1.04437 -13.8233
ltibia 35.2847
lfoot -17.4547 4.52802
ltoes -57.3459
